# Blender v2.77 (sub 0) OBJ File: 'turretgunsleft.blend'
# www.blender.org
mtllib turretgunsleft.mtl
o sci_fi_tur
v -0.136614 -0.098384 0.043338
v 0.032796 -0.098384 -0.000015
v -0.047849 -0.060961 0.148819
v 0.059101 -0.060961 0.148819
v -0.047849 0.053949 0.148819
v 0.059101 0.053949 0.148819
v -0.026551 -0.038078 0.409964
v 0.037803 -0.038078 0.409964
v -0.026551 0.031066 0.409963
v 0.037803 0.031066 0.409963
v 0.006302 -0.060759 0.382979
v 0.070656 -0.060759 0.382979
v 0.070656 0.047937 0.382979
v 0.006302 0.047937 0.382979
v 0.000982 -0.084091 0.202200
v 0.107933 -0.084091 0.202200
v 0.107933 0.071269 0.202200
v 0.000982 0.071269 0.202200
v 0.277938 -0.024527 0.257527
v 0.277938 0.011705 0.257527
v 0.292638 -0.032304 0.155371
v 0.292638 0.019483 0.155371
v -0.043472 -0.048218 0.174209
v -0.025077 -0.032706 0.392467
v -0.043512 0.039621 0.174269
v -0.025036 0.022123 0.392407
v -0.185740 -0.044153 0.177765
v -0.123665 -0.030093 0.352031
v -0.185700 0.033570 0.177705
v -0.123705 0.021496 0.352091
v -0.160053 0.022222 0.216604
v -0.160053 0.001543 0.188141
v -0.160053 -0.031917 0.199013
v -0.160053 -0.031917 0.234195
v -0.160053 0.001543 0.245066
v -0.702532 0.009351 0.216604
v -0.702532 -0.002435 0.200383
v -0.702532 -0.021504 0.206579
v -0.702532 -0.021504 0.226629
v -0.702532 -0.002435 0.232825
v 0.028809 -0.002356 0.407722
v 0.012090 0.020656 0.407722
v -0.014961 0.011866 0.407722
v -0.014961 -0.016577 0.407722
v 0.012090 -0.025367 0.407722
v 0.028809 -0.002355 0.474916
v 0.012090 0.020656 0.474916
v -0.014961 0.011866 0.474916
v -0.014961 -0.016577 0.474916
v 0.012090 -0.025367 0.474916
v -0.020227 0.038544 0.298910
v 0.062333 0.038544 0.298910
v -0.020227 0.040702 0.271338
v 0.062333 0.040702 0.271338
v -0.001900 0.077016 0.300878
v 0.044006 0.077016 0.300878
v -0.001900 0.079173 0.273306
v 0.044006 0.079173 0.273306
v -0.020227 0.033052 0.350191
v 0.062333 0.033052 0.350191
v -0.020227 0.035210 0.322620
v 0.062333 0.035210 0.322620
v -0.001900 0.071524 0.352159
v 0.044006 0.071524 0.352159
v -0.001900 0.073681 0.324588
v 0.044006 0.073681 0.324588
v -0.075476 -0.100846 0.299301
v 0.016747 -0.100846 0.299301
v -0.115755 -0.111104 0.226907
v 0.016747 -0.111104 0.226907
v -0.112638 -0.024843 0.334747
v 0.058426 -0.024843 0.334747
v -0.152917 -0.035101 0.226907
v 0.058426 -0.035101 0.226907
v -0.035062 -0.001273 0.153620
v -0.025984 0.023668 0.153620
v -0.002998 0.036939 0.153620
v 0.023140 0.032330 0.153620
v 0.040201 0.011998 0.153620
v 0.040201 -0.014544 0.153620
v 0.023140 -0.034876 0.153620
v -0.002998 -0.039485 0.153620
v -0.025984 -0.026214 0.153620
v -0.035062 -0.001273 0.110907
v -0.025984 0.023668 0.110907
v -0.002998 0.036939 0.110907
v 0.023140 0.032330 0.110907
v 0.040201 0.011998 0.110907
v 0.040201 -0.014544 0.110907
v 0.023140 -0.034876 0.110907
v -0.002998 -0.039485 0.110907
v -0.025984 -0.026214 0.110907
v -0.136614 -0.098384 -0.043368
v 0.037803 0.031066 0.409963
v 0.037803 0.031066 0.409963
v -0.026551 0.031066 0.409963
v -0.026551 0.031066 0.409963
v 0.037803 0.031066 0.409963
v -0.047849 0.053949 0.148819
v -0.026551 0.031066 0.409963
v -0.047849 0.053949 0.148819
v 0.006302 -0.060759 0.382979
v 0.006302 0.047937 0.382979
v 0.006302 0.047937 0.382979
v 0.000982 0.071269 0.202200
v 0.000982 -0.084091 0.202200
v 0.000982 0.071269 0.202200
v 0.000982 0.071269 0.202200
v 0.107933 0.071269 0.202200
v 0.107933 -0.084091 0.202200
v 0.107933 -0.084091 0.202200
v 0.000982 -0.084091 0.202200
v 0.000982 0.071269 0.202200
v 0.292638 -0.032304 0.155371
v 0.292638 -0.032304 0.155371
v 0.292638 0.019483 0.155371
v 0.292638 -0.032304 0.155371
v 0.107933 -0.084091 0.202200
v 0.107933 -0.084091 0.202200
v 0.107933 0.071269 0.202200
v 0.292638 0.019483 0.155371
v -0.025077 -0.032706 0.392467
v -0.025077 -0.032706 0.392467
v -0.185700 0.033570 0.177705
v -0.160053 -0.031917 0.234195
v -0.702532 -0.021504 0.226629
v -0.160053 -0.031917 0.234195
v -0.702532 -0.002435 0.232825
v -0.014961 0.011866 0.407722
v -0.014961 0.011866 0.474916
v -0.014961 0.011866 0.407722
v -0.014961 0.011866 0.474916
v 0.028809 -0.002355 0.474916
v -0.014961 0.011866 0.474916
v 0.062333 0.038544 0.298910
v 0.062333 0.038544 0.298910
v 0.062333 0.040702 0.271338
v 0.062333 0.040702 0.271338
v -0.020227 0.040702 0.271338
v -0.020227 0.038544 0.298910
v -0.020227 0.040702 0.271338
v 0.062333 0.033052 0.350191
v 0.062333 0.033052 0.350191
v 0.062333 0.035210 0.322620
v 0.062333 0.035210 0.322620
v -0.020227 0.035210 0.322620
v -0.020227 0.033052 0.350191
v -0.020227 0.035210 0.322620
v 0.058426 -0.024843 0.334747
v 0.058426 -0.035101 0.226907
v -0.112638 -0.024843 0.334747
v -0.112638 -0.024843 0.334747
v -0.152917 -0.035101 0.226907
v -0.043512 0.039621 0.174269
v -0.025036 0.022123 0.392407
v -0.043512 0.039621 0.174269
v 0.292638 0.019483 0.155371
v -0.067120 0.072429 0.112821
v 0.028809 -0.002355 0.474916
v 0.012090 0.020656 0.474916
v -0.014961 0.011866 0.474916
v -0.702532 -0.021504 0.206579
v -0.702532 -0.021504 0.226629
v -0.702532 -0.002435 0.232825
v -0.702532 -0.002435 0.232825
v -0.702532 -0.021504 0.206579
v 0.059101 0.053949 0.148819
v 0.059101 -0.060961 0.148819
v -0.047849 -0.060961 0.148819
v -0.047849 -0.060961 0.148819
v -0.047849 0.053949 0.148819
v 0.059101 0.053949 0.148819
v 0.023140 0.032330 0.153620
v 0.023140 0.032330 0.110907
v 0.023140 0.032330 0.153620
vt 0.7038 0.2917
vt 0.7504 0.2917
vt 0.7504 0.3418
vt 0.7039 0.3418
vt 0.6882 0.1019
vt 0.7657 0.1019
vt 0.8477 0.1158
vt 0.7996 0.3001
vt 0.7996 0.3001
vt 0.9208 0.1414
vt 0.8436 0.3155
vt 0.8436 0.3155
vt 0.7996 0.3001
vt 0.6062 0.1158
vt 0.6543 0.3001
vt 0.6062 0.1158
vt 0.8327 0.7098
vt 0.7540 0.7095
vt 0.7540 0.6629
vt 0.8327 0.6629
vt 0.9685 0.7493
vt 0.9218 0.8111
vt 0.8608 0.6729
vt 0.7746 0.9596
vt 0.7803 0.8849
vt 0.8070 0.8852
vt 0.8121 0.9596
vt 0.6714 0.8148
vt 0.6225 0.7548
vt 0.7264 0.6751
vt 0.7264 0.6751
vt 0.7371 0.5319
vt 0.8496 0.5319
vt 0.7371 0.5319
vt 0.7371 0.5319
vt 0.7371 0.4545
vt 0.8496 0.4545
vt 0.8496 0.4545
vt 0.8496 0.5319
vt 0.7371 0.5319
vt 0.8594 0.9396
vt 0.8594 0.9396
vt 0.7746 0.3165
vt 0.8121 0.3165
vt 0.8496 0.4545
vt 0.8496 0.4545
vt 0.7371 0.4545
vt 0.7746 0.3165
vt 0.4964 0.7805
vt 0.5306 0.9104
vt 0.4957 0.9226
vt 0.4430 0.7991
vt 0.5995 0.7868
vt 0.5991 0.9457
vt 0.5583 0.9823
vt 0.5209 0.9955
vt 0.5583 0.9823
vt 0.6015 0.7232
vt 0.4984 0.7243
vt 0.9354 0.6662
vt 0.9099 0.6669
vt 0.9050 0.2740
vt 0.9195 0.2737
vt 0.8844 0.6669
vt 0.8905 0.2740
vt 0.8590 0.6661
vt 0.8760 0.2736
vt 0.9862 0.6628
vt 0.9608 0.6649
vt 0.9340 0.2729
vt 0.9485 0.2717
vt 0.9862 0.6628
vt 0.9236 0.2597
vt 0.5714 0.6417
vt 0.5714 0.6623
vt 0.5228 0.6623
vt 0.5228 0.6417
vt 0.5714 0.6829
vt 0.5228 0.6829
vt 0.5714 0.5799
vt 0.5714 0.6005
vt 0.5228 0.6005
vt 0.5228 0.5799
vt 0.5714 0.5799
vt 0.5714 0.6211
vt 0.5228 0.6211
vt 0.5032 0.5941
vt 0.5032 0.6274
vt 0.5032 0.5941
vt 0.6377 0.6065
vt 0.6377 0.6397
vt 0.6177 0.6397
vt 0.6176 0.6065
vt 0.6656 0.5932
vt 0.6656 0.6530
vt 0.6384 0.6706
vt 0.6184 0.6706
vt 0.6384 0.6706
vt 0.5899 0.6531
vt 0.5897 0.5934
vt 0.5899 0.6531
vt 0.6184 0.5756
vt 0.6384 0.5756
vt 0.6184 0.5756
vt 0.3054 0.9043
vt 0.3054 0.9376
vt 0.2856 0.9377
vt 0.2857 0.9044
vt 0.3333 0.8910
vt 0.3333 0.9508
vt 0.3061 0.9684
vt 0.2861 0.9684
vt 0.3061 0.9684
vt 0.2577 0.9509
vt 0.2582 0.8911
vt 0.2577 0.9509
vt 0.2861 0.8734
vt 0.3061 0.8734
vt 0.2861 0.8734
vt 0.0763 0.5181
vt 0.1290 0.4887
vt 0.1294 0.5847
vt 0.0763 0.5846
vt 0.0156 0.6148
vt 0.0156 0.4909
vt 0.1215 0.6469
vt 0.0432 0.6437
vt 0.1840 0.4617
vt 0.1847 0.6147
vt 0.0304 0.4706
vt 0.0304 0.4706
vt 0.1048 0.4326
vt 0.3656 0.8657
vt 0.4618 0.9916
vt 0.3656 0.8657
vt 0.7297 0.9399
vt 0.5032 0.6274
vt 0.4911 0.6108
vt 0.5032 0.5941
vt 0.9002 0.2604
vt 0.9117 0.2515
vt 0.9236 0.2597
vt 0.9236 0.2597
vt 0.9002 0.2604
vt 0.8649 0.0968
vt 0.8649 0.0141
vt 0.9420 0.0141
vt 0.9420 0.0141
vt 0.9420 0.0968
vt 0.8649 0.0968
vt 0.9901 0.1354
vt 0.9901 0.1545
vt 0.9594 0.1545
vt 0.9594 0.1354
vt 0.9901 0.1736
vt 0.9594 0.1736
vt 0.9901 0.1927
vt 0.9594 0.1927
vt 0.9901 0.0207
vt 0.9901 0.0398
vt 0.9594 0.0398
vt 0.9594 0.0207
vt 0.9901 0.0207
vt 0.9901 0.0590
vt 0.9594 0.0590
vt 0.9901 0.0781
vt 0.9594 0.0781
vt 0.9901 0.0972
vt 0.9594 0.0972
vt 0.9901 0.1163
vt 0.9594 0.1163
vn 0.0000 0.0000 1.0000
vn 0.0000 -0.9962 0.0873
vn 0.9967 0.0000 0.0813
vn 0.0000 0.9962 0.0873
vn -0.9967 0.0000 0.0813
vn 0.0000 -0.9918 0.1280
vn 0.9898 0.0000 0.1424
vn 0.0000 0.9918 0.1280
vn -0.9996 0.0000 0.0294
vn 0.0000 0.0000 -1.0000
vn 0.3083 -0.9333 0.1840
vn 0.2338 -0.9664 0.1072
vn 0.5178 0.0000 0.8555
vn -0.2458 0.0000 -0.9693
vn -0.9420 -0.0011 0.3356
vn -0.9422 0.0007 0.3350
vn -0.0574 -0.9955 0.0756
vn -0.0262 -0.9956 0.0897
vn -0.3782 0.0013 0.9257
vn -0.3795 -0.0014 0.9252
vn -0.0250 0.0007 -0.9997
vn -0.0241 -0.0008 -0.9997
vn -0.0192 0.8089 -0.5877
vn -0.0192 -0.3090 -0.9509
vn -0.0192 -0.9998 0.0000
vn -0.0192 -0.3090 0.9509
vn -0.0192 0.8089 0.5877
vn -1.0000 0.0000 0.0000
vn 0.8090 0.5878 -0.0000
vn -0.3090 0.9511 -0.0000
vn -0.3090 -0.9511 0.0000
vn 0.8090 -0.5878 0.0000
vn 0.0000 0.9970 0.0780
vn 0.0000 -0.0511 0.9987
vn 0.9030 0.4284 0.0335
vn 0.0000 0.0511 -0.9987
vn -0.9030 0.4284 0.0335
vn 0.0000 -0.9901 0.1403
vn 0.0000 -0.4227 0.9063
vn 0.8748 -0.4797 0.0680
vn 0.8664 -0.4972 0.0473
vn -0.6915 -0.5542 0.4633
vn -0.8405 -0.4110 0.3530
vn -0.0404 0.9957 0.0833
vn 0.2950 0.9486 0.1147
vn 0.2732 0.9453 0.1783
vn -0.9397 0.3420 -0.0000
vn -0.5000 0.8660 -0.0000
vn 0.1736 0.9848 0.0000
vn 0.7660 0.6428 0.0000
vn 1.0000 0.0000 0.0000
vn 0.7660 -0.6428 0.0000
vn 0.1736 -0.9848 0.0000
vn -0.5000 -0.8660 -0.0000
vn -0.9397 -0.3420 -0.0000
usemtl sci_fi_turret_4
s off
f 7/1/1 8/2/1 10/3/1
f 10/3/1 9/4/1 7/1/1
f 3/5/2 4/6/2 8/2/2
f 8/2/2 7/1/2 3/5/2
f 4/6/3 6/7/3 94/8/3
f 95/9/3 8/2/3 4/6/3
f 6/7/4 5/10/4 96/11/4
f 97/12/4 98/13/4 6/7/4
f 99/14/5 3/5/5 7/1/5
f 7/1/5 100/15/5 101/16/5
f 12/17/1 13/18/1 14/19/1
f 14/19/1 11/20/1 12/17/1
f 15/21/6 16/22/6 12/17/6
f 12/17/6 102/23/6 15/21/6
f 22/24/7 20/25/7 19/26/7
f 19/26/7 21/27/7 22/24/7
f 17/28/8 18/29/8 103/30/8
f 104/31/8 13/18/8 17/28/8
f 105/32/9 106/33/9 11/20/9
f 11/20/9 14/19/9 107/34/9
f 108/35/10 109/36/10 110/37/10
f 111/38/10 112/39/10 113/40/10
f 12/17/11 16/22/11 114/41/11
f 115/42/12 19/26/12 12/17/12
f 19/26/13 20/25/13 13/18/13
f 13/18/13 12/17/13 19/26/13
f 116/43/14 117/44/14 118/45/14
f 119/46/14 120/47/14 121/48/14
f 27/49/15 28/50/15 30/51/15
f 30/51/16 29/52/16 27/49/16
f 23/53/17 24/54/17 28/50/17
f 28/50/18 27/49/18 23/53/18
f 122/55/19 26/56/19 30/51/19
f 30/51/20 28/50/20 123/57/20
f 25/58/21 23/53/21 27/49/21
f 27/49/22 124/59/22 25/58/22
f 31/60/23 32/61/23 37/62/23
f 37/62/23 36/63/23 31/60/23
f 32/61/24 33/64/24 38/65/24
f 38/65/24 37/62/24 32/61/24
f 33/64/25 34/66/25 39/67/25
f 39/67/25 38/65/25 33/64/25
f 125/68/26 35/69/26 40/70/26
f 40/70/26 126/71/26 127/72/26
f 35/69/27 31/60/27 36/63/27
f 36/63/27 40/70/27 35/69/27
f 36/63/28 37/62/28 128/73/28
f 41/74/29 42/75/29 47/76/29
f 47/76/29 46/77/29 41/74/29
f 42/75/30 43/78/30 48/79/30
f 48/79/30 47/76/30 42/75/30
f 129/80/28 44/81/28 49/82/28
f 49/82/28 130/83/28 131/84/28
f 44/81/31 45/85/31 50/86/31
f 50/86/31 49/82/31 44/81/31
f 45/85/32 41/74/32 46/77/32
f 46/77/32 50/86/32 45/85/32
f 132/87/1 49/82/1 50/86/1
f 50/86/1 133/88/1 134/89/1
f 55/90/33 56/91/33 58/92/33
f 58/92/33 57/93/33 55/90/33
f 51/94/34 52/95/34 56/91/34
f 56/91/34 55/90/34 51/94/34
f 135/96/35 54/97/35 58/92/35
f 58/92/35 56/91/35 136/98/35
f 137/99/36 53/100/36 57/93/36
f 57/93/36 58/92/36 138/101/36
f 139/102/37 140/103/37 55/90/37
f 55/90/37 57/93/37 141/104/37
f 63/105/33 64/106/33 66/107/33
f 66/107/33 65/108/33 63/105/33
f 59/109/34 60/110/34 64/106/34
f 64/106/34 63/105/34 59/109/34
f 142/111/35 62/112/35 66/107/35
f 66/107/35 64/106/35 143/113/35
f 144/114/36 61/115/36 65/108/36
f 65/108/36 66/107/36 145/116/36
f 146/117/37 147/118/37 63/105/37
f 63/105/37 65/108/37 148/119/37
f 67/120/38 69/121/38 70/122/38
f 70/122/38 68/123/38 67/120/38
f 67/120/39 68/123/39 72/124/39
f 72/124/39 71/125/39 67/120/39
f 68/123/40 70/122/40 74/126/40
f 74/126/41 149/127/41 68/123/41
f 70/122/10 69/121/10 73/128/10
f 73/128/10 150/129/10 70/122/10
f 69/121/42 67/120/42 151/130/42
f 152/131/43 153/132/43 69/121/43
f 154/133/44 29/52/44 30/51/44
f 30/51/44 155/134/44 156/135/44
f 20/25/45 157/136/45 17/28/45
f 17/28/46 13/18/46 20/25/46
f 159/137/1 160/138/1 161/139/1
f 162/140/28 163/141/28 164/142/28
f 165/143/28 37/62/28 166/144/28
f 167/145/10 168/146/10 169/147/10
f 170/148/10 171/149/10 172/150/10
f 75/151/47 76/152/47 85/153/47
f 85/153/47 84/154/47 75/151/47
f 76/152/48 77/155/48 86/156/48
f 86/156/48 85/153/48 76/152/48
f 77/155/49 78/157/49 87/158/49
f 87/158/49 86/156/49 77/155/49
f 173/159/50 79/160/50 88/161/50
f 88/161/50 174/162/50 175/163/50
f 79/160/51 80/164/51 89/165/51
f 89/165/51 88/161/51 79/160/51
f 80/164/52 81/166/52 90/167/52
f 90/167/52 89/165/52 80/164/52
f 81/166/53 82/168/53 91/169/53
f 91/169/53 90/167/53 81/166/53
f 82/168/54 83/170/54 92/171/54
f 92/171/54 91/169/54 82/168/54
f 83/170/55 75/151/55 84/154/55
f 84/154/55 92/171/55 83/170/55
