# Blender v2.77 (sub 0) OBJ File: 'turretbase.blend'
# www.blender.org
mtllib turretbase.mtl
o sci_fi_tur
v 0.344096 0.000000 0.685202
v 0.649992 0.000000 0.685202
v 0.400944 0.226028 0.631901
v 0.640920 0.226028 0.584126
v 0.296321 0.000000 0.637426
v 0.697768 0.000000 0.637426
v 0.353169 0.226028 0.584126
v 0.593144 0.226028 0.631901
v 0.584900 0.034830 0.773811
v 0.408876 0.034830 0.773811
v 0.544435 0.140142 0.750682
v 0.449341 0.140142 0.750682
v 0.584900 0.034830 0.650935
v 0.408876 0.034830 0.650935
v 0.544435 0.140142 0.647476
v 0.449341 0.140142 0.647476
v 0.424026 0.000000 1.000000
v 0.578185 0.000000 1.000000
v 0.353522 0.000000 0.776415
v 0.648688 0.000000 0.776415
v 0.454944 0.065563 0.979009
v 0.547267 0.065563 0.979009
v 0.412720 0.166882 0.734738
v 0.589491 0.166882 0.734738
v 0.697768 0.000000 0.500000
v 0.296321 0.000000 0.500000
v 0.640920 0.226028 0.500000
v 0.353169 0.226028 0.500000
v 0.344096 0.000000 0.314798
v 0.296321 0.000000 0.362574
v 0.697768 0.000000 0.362574
v 0.649992 0.000000 0.314798
v 0.353169 0.226028 0.415874
v 0.640920 0.226028 0.415874
v 0.593144 0.226028 0.368099
v 0.400944 0.226028 0.368099
v 0.584900 0.034830 0.226189
v 0.408876 0.034830 0.226189
v 0.408876 0.034830 0.349065
v 0.584900 0.034830 0.349065
v 0.449341 0.140142 0.249318
v 0.449341 0.140142 0.352524
v 0.544435 0.140142 0.249318
v 0.544435 0.140142 0.352524
v 0.424026 0.000000 0.000000
v 0.353522 0.000000 0.223585
v 0.648688 0.000000 0.223585
v 0.578185 0.000000 0.000000
v 0.454944 0.065563 0.020991
v 0.547267 0.065563 0.020991
v 0.589491 0.166882 0.265262
v 0.412720 0.166882 0.265262
v 0.640920 0.226028 0.500000
v 0.640920 0.226028 0.584126
v 0.640920 0.226028 0.584126
v 0.697768 0.000000 0.637426
v 0.697768 0.000000 0.637426
v 0.640920 0.226028 0.584126
v 0.640920 0.226028 0.584126
v 0.353169 0.226028 0.584126
v 0.296321 0.000000 0.637426
v 0.296321 0.000000 0.637426
v 0.584900 0.034830 0.773811
v 0.584900 0.034830 0.650935
v 0.584900 0.034830 0.650935
v 0.578185 0.000000 1.000000
v 0.648688 0.000000 0.776415
v 0.578185 0.000000 1.000000
v 0.412720 0.166882 0.734738
v 0.412720 0.166882 0.734738
v 0.589491 0.166882 0.734738
v 0.353522 0.000000 0.776415
v 0.424026 0.000000 1.000000
v 0.353522 0.000000 0.776415
v 0.296321 0.000000 0.637426
v 0.353169 0.226028 0.584126
v 0.353169 0.226028 0.584126
v 0.353169 0.226028 0.500000
v 0.296321 0.000000 0.500000
v 0.697768 0.000000 0.500000
v 0.296321 0.000000 0.500000
v 0.697768 0.000000 0.362574
v 0.640920 0.226028 0.415874
v 0.640920 0.226028 0.415874
v 0.640920 0.226028 0.500000
v 0.640920 0.226028 0.415874
v 0.640920 0.226028 0.415874
v 0.697768 0.000000 0.362574
v 0.296321 0.000000 0.362574
v 0.296321 0.000000 0.362574
v 0.353169 0.226028 0.415874
v 0.584900 0.034830 0.349065
v 0.584900 0.034830 0.349065
v 0.584900 0.034830 0.226189
v 0.578185 0.000000 0.000000
v 0.648688 0.000000 0.223585
v 0.578185 0.000000 0.000000
v 0.589491 0.166882 0.265262
v 0.412720 0.166882 0.265262
v 0.412720 0.166882 0.265262
v 0.353522 0.000000 0.223585
v 0.424026 0.000000 0.000000
v 0.353522 0.000000 0.223585
v 0.353169 0.226028 0.500000
v 0.353169 0.226028 0.415874
v 0.353169 0.226028 0.415874
v 0.296321 0.000000 0.362574
v 0.296321 0.000000 0.500000
v 0.697768 0.000000 0.500000
v 0.296321 0.000000 0.500000
v 0.776785 0.034830 0.420971
v 0.776919 0.034830 0.597701
v 0.753778 0.140142 0.461616
v 0.753851 0.140142 0.557091
v 0.654399 0.034830 0.421065
v 0.654533 0.034830 0.597795
v 0.650985 0.140142 0.461695
v 0.651058 0.140142 0.557170
v 1.002194 0.000000 0.582317
v 1.002076 0.000000 0.427541
v 0.779555 0.000000 0.653274
v 0.779330 0.000000 0.356926
v 0.981263 0.065563 0.551292
v 0.981193 0.065563 0.458598
v 0.737999 0.166882 0.593872
v 0.737864 0.166882 0.416392
v 0.776785 0.034830 0.420971
v 0.654399 0.034830 0.421065
v 0.654399 0.034830 0.421065
v 1.002076 0.000000 0.427541
v 0.779330 0.000000 0.356926
v 1.002076 0.000000 0.427541
v 0.737999 0.166882 0.593872
v 0.737999 0.166882 0.593872
v 0.737864 0.166882 0.416392
v 0.779555 0.000000 0.653274
v 1.002194 0.000000 0.582317
v 0.779555 0.000000 0.653274
v 0.227753 0.034830 0.586923
v 0.227454 0.034830 0.410193
v 0.250722 0.140142 0.546256
v 0.250560 0.140142 0.450781
v 0.350139 0.034830 0.586714
v 0.349840 0.034830 0.409984
v 0.353515 0.140142 0.546081
v 0.353353 0.140142 0.450606
v 0.002194 0.000000 0.425788
v 0.002456 0.000000 0.580564
v 0.224766 0.000000 0.354623
v 0.225268 0.000000 0.650971
v 0.023153 0.065563 0.456794
v 0.023310 0.065563 0.549487
v 0.266378 0.166882 0.413986
v 0.266679 0.166882 0.591465
v 0.227753 0.034830 0.586923
v 0.350139 0.034830 0.586714
v 0.350139 0.034830 0.586714
v 0.002456 0.000000 0.580564
v 0.225268 0.000000 0.650971
v 0.002456 0.000000 0.580564
v 0.266378 0.166882 0.413986
v 0.266378 0.166882 0.413986
v 0.266679 0.166882 0.591465
v 0.224766 0.000000 0.354623
v 0.002194 0.000000 0.425788
v 0.224766 0.000000 0.354623
vt 0.0938 0.1844
vt 0.3289 0.1844
vt 0.3009 0.2123
vt 0.1217 0.2158
vt 0.2954 0.3732
vt 0.2953 0.4223
vt 0.1268 0.4220
vt 0.1269 0.3729
vt 0.2675 0.3452
vt 0.1550 0.3486
vt 0.4106 0.2581
vt 0.3497 0.3767
vt 0.3060 0.3543
vt 0.3060 0.3543
vt 0.3393 0.2214
vt 0.3393 0.2214
vt 0.3060 0.3543
vt 0.3060 0.3543
vt 0.1166 0.3578
vt 0.0833 0.2249
vt 0.0833 0.2249
vt 0.0115 0.9427
vt 0.0115 0.8396
vt 0.0831 0.8396
vt 0.0831 0.9427
vt 0.0249 0.7749
vt 0.0851 0.7749
vt 0.0249 0.7192
vt 0.0851 0.7192
vt 0.0115 0.6545
vt 0.0831 0.6545
vt 0.0831 0.6545
vt 0.2378 0.6594
vt 0.1965 0.5290
vt 0.3694 0.5290
vt 0.3281 0.6594
vt 0.2559 0.6989
vt 0.3100 0.6989
vt 0.3347 0.8527
vt 0.2312 0.8527
vt 0.3430 0.6709
vt 0.4156 0.7868
vt 0.3430 0.6709
vt 0.2312 0.4306
vt 0.2312 0.4306
vt 0.3347 0.4306
vt 0.1503 0.7868
vt 0.2229 0.6709
vt 0.1503 0.7868
vt 0.0120 0.2581
vt 0.0833 0.2249
vt 0.1166 0.3578
vt 0.1166 0.3578
vt 0.0730 0.3768
vt 0.0938 0.1043
vt 0.3289 0.1043
vt 0.0938 0.1043
vt 0.0938 0.1844
vt 0.1217 0.2158
vt 0.3009 0.2123
vt 0.3289 0.1844
vt 0.2954 0.3732
vt 0.1269 0.3729
vt 0.1550 0.3486
vt 0.2675 0.3452
vt 0.3393 0.2214
vt 0.3060 0.3543
vt 0.3060 0.3543
vt 0.3497 0.3767
vt 0.3060 0.3543
vt 0.3060 0.3543
vt 0.3393 0.2214
vt 0.0833 0.2249
vt 0.0833 0.2249
vt 0.1166 0.3578
vt 0.0115 0.9427
vt 0.0831 0.9427
vt 0.0831 0.8396
vt 0.0115 0.8396
vt 0.0851 0.7749
vt 0.0249 0.7749
vt 0.0851 0.7192
vt 0.0249 0.7192
vt 0.0831 0.6545
vt 0.0831 0.6545
vt 0.0115 0.6545
vt 0.2378 0.6594
vt 0.3281 0.6594
vt 0.3694 0.5290
vt 0.1965 0.5290
vt 0.2559 0.6989
vt 0.2312 0.8527
vt 0.3347 0.8527
vt 0.3100 0.6989
vt 0.3430 0.6709
vt 0.4156 0.7868
vt 0.3430 0.6709
vt 0.3347 0.4306
vt 0.2312 0.4306
vt 0.2312 0.4306
vt 0.1503 0.7868
vt 0.2229 0.6709
vt 0.1503 0.7868
vt 0.0730 0.3768
vt 0.1166 0.3578
vt 0.1166 0.3578
vt 0.0833 0.2249
vt 0.0938 0.1043
vt 0.3289 0.1043
vt 0.0938 0.1043
vt 0.0115 0.9427
vt 0.0115 0.8396
vt 0.0831 0.8396
vt 0.0831 0.9427
vt 0.0249 0.7749
vt 0.0851 0.7749
vt 0.0249 0.7192
vt 0.0851 0.7192
vt 0.0115 0.6545
vt 0.0831 0.6545
vt 0.0831 0.6545
vt 0.2378 0.6594
vt 0.1965 0.5290
vt 0.3694 0.5290
vt 0.3281 0.6594
vt 0.2559 0.6989
vt 0.3100 0.6989
vt 0.3347 0.8527
vt 0.2312 0.8527
vt 0.3430 0.6709
vt 0.4156 0.7868
vt 0.3430 0.6709
vt 0.2312 0.4306
vt 0.2312 0.4306
vt 0.3347 0.4306
vt 0.1503 0.7868
vt 0.2229 0.6709
vt 0.1503 0.7868
vt 0.0115 0.9427
vt 0.0115 0.8396
vt 0.0831 0.8396
vt 0.0831 0.9427
vt 0.0249 0.7749
vt 0.0851 0.7749
vt 0.0249 0.7192
vt 0.0851 0.7192
vt 0.0115 0.6545
vt 0.0831 0.6545
vt 0.0831 0.6545
vt 0.2378 0.6594
vt 0.1965 0.5290
vt 0.3694 0.5290
vt 0.3281 0.6594
vt 0.2559 0.6989
vt 0.3100 0.6989
vt 0.3347 0.8527
vt 0.2312 0.8527
vt 0.3430 0.6709
vt 0.4156 0.7868
vt 0.3430 0.6709
vt 0.2312 0.4306
vt 0.2312 0.4306
vt 0.3347 0.4306
vt 0.1503 0.7868
vt 0.2229 0.6709
vt 0.1503 0.7868
vn 0.0000 -1.0000 0.0000
vn 0.0000 1.0000 0.0000
vn 0.0000 0.2295 0.9733
vn 0.9698 0.2439 0.0000
vn 0.6685 0.3258 0.6685
vn -0.6685 0.3258 0.6685
vn -0.9335 0.3587 -0.0000
vn 0.9335 0.3587 0.0000
vn 0.0000 0.9237 0.3831
vn 0.0000 0.3049 0.9524
vn 0.8814 0.3821 0.2779
vn 0.8033 0.4881 0.3413
vn 0.0000 -0.2423 -0.9702
vn -0.8371 0.4792 0.2640
vn -0.8689 0.3857 0.3102
vn -0.9698 0.2439 0.0000
vn 0.0000 0.2295 -0.9733
vn 0.6685 0.3258 -0.6685
vn -0.6685 0.3258 -0.6685
vn 0.0000 0.9237 -0.3831
vn 0.0000 0.3049 -0.9524
vn 0.8033 0.4881 -0.3413
vn 0.8814 0.3821 -0.2779
vn 0.0000 -0.2423 0.9702
vn -0.8689 0.3857 -0.3102
vn -0.8371 0.4792 -0.2640
vn 0.0007 0.3599 0.9330
vn -0.0007 0.3599 -0.9330
vn 0.3844 0.9232 -0.0003
vn 0.9527 0.3038 -0.0007
vn 0.2791 0.3831 -0.8805
vn 0.3428 0.4891 -0.8020
vn -0.9704 -0.2414 0.0007
vn 0.2663 0.4804 0.8356
vn 0.3129 0.3867 0.8675
vn -0.0016 0.3599 -0.9330
vn 0.0016 0.3599 0.9330
vn -0.3844 0.9232 0.0007
vn -0.9527 0.3038 0.0016
vn -0.2783 0.3831 0.8808
vn -0.3420 0.4891 0.8024
vn 0.9704 -0.2414 -0.0016
vn -0.2671 0.4804 -0.8354
vn -0.3137 0.3867 -0.8672
usemtl sci_fi_turret_4
s off
f 5/1/1 6/2/1 2/3/1
f 2/3/1 1/4/1 5/1/1
f 4/5/2 27/6/2 28/7/2
f 28/7/2 7/8/2 4/5/2
f 1/4/3 2/3/3 8/9/3
f 8/9/3 3/10/3 1/4/3
f 25/11/4 53/12/4 54/13/4
f 55/14/4 56/15/4 25/11/4
f 2/3/5 57/16/5 58/17/5
f 59/18/5 8/9/5 2/3/5
f 3/10/6 60/19/6 61/20/6
f 62/21/6 1/4/6 3/10/6
f 9/22/1 10/23/1 14/24/1
f 14/24/1 13/25/1 9/22/1
f 10/23/7 12/26/7 16/27/7
f 16/27/7 14/24/7 10/23/7
f 12/26/2 11/28/2 15/29/2
f 15/29/2 16/27/2 12/26/2
f 11/28/8 63/30/8 64/31/8
f 65/32/8 15/29/8 11/28/8
f 17/33/1 19/34/1 20/35/1
f 20/35/1 18/36/1 17/33/1
f 21/37/9 22/38/9 24/39/9
f 24/39/9 23/40/9 21/37/9
f 17/33/10 18/36/10 22/38/10
f 22/38/10 21/37/10 17/33/10
f 66/41/11 67/42/11 24/39/11
f 24/39/12 22/38/12 68/43/12
f 20/35/13 19/34/13 69/44/13
f 70/45/13 71/46/13 20/35/13
f 72/47/14 73/48/14 21/37/14
f 21/37/15 23/40/15 74/49/15
f 26/50/16 75/51/16 76/52/16
f 77/53/16 78/54/16 26/50/16
f 3/10/2 8/9/2 4/5/2
f 4/5/2 7/8/2 3/10/2
f 79/55/1 80/56/1 6/2/1
f 6/2/1 5/1/1 81/57/1
f 30/58/1 29/59/1 32/60/1
f 32/60/1 31/61/1 30/58/1
f 34/62/2 33/63/2 28/7/2
f 28/7/2 27/6/2 34/62/2
f 29/59/17 36/64/17 35/65/17
f 35/65/17 32/60/17 29/59/17
f 25/11/4 82/66/4 83/67/4
f 84/68/4 85/69/4 25/11/4
f 32/60/18 35/65/18 86/70/18
f 87/71/18 88/72/18 32/60/18
f 36/64/19 29/59/19 89/73/19
f 90/74/19 91/75/19 36/64/19
f 37/76/1 40/77/1 39/78/1
f 39/78/1 38/79/1 37/76/1
f 38/79/7 39/78/7 42/80/7
f 42/80/7 41/81/7 38/79/7
f 41/81/2 42/80/2 44/82/2
f 44/82/2 43/83/2 41/81/2
f 43/83/8 44/82/8 92/84/8
f 93/85/8 94/86/8 43/83/8
f 45/87/1 48/88/1 47/89/1
f 47/89/1 46/90/1 45/87/1
f 49/91/20 52/92/20 51/93/20
f 51/93/20 50/94/20 49/91/20
f 45/87/21 49/91/21 50/94/21
f 50/94/21 48/88/21 45/87/21
f 95/95/22 50/94/22 51/93/22
f 51/93/23 96/96/23 97/97/23
f 47/89/24 98/98/24 99/99/24
f 100/100/24 46/90/24 47/89/24
f 101/101/25 52/92/25 49/91/25
f 49/91/26 102/102/26 103/103/26
f 26/50/16 104/104/16 105/105/16
f 106/106/16 107/107/16 26/50/16
f 36/64/2 33/63/2 34/62/2
f 34/62/2 35/65/2 36/64/2
f 108/108/1 30/58/1 31/61/1
f 31/61/1 109/109/1 110/110/1
f 111/111/1 112/112/1 116/113/1
f 116/113/1 115/114/1 111/111/1
f 112/112/27 114/115/27 118/116/27
f 118/116/27 116/113/27 112/112/27
f 114/115/2 113/117/2 117/118/2
f 117/118/2 118/116/2 114/115/2
f 113/117/28 127/119/28 128/120/28
f 129/121/28 117/118/28 113/117/28
f 119/122/1 121/123/1 122/124/1
f 122/124/1 120/125/1 119/122/1
f 123/126/29 124/127/29 126/128/29
f 126/128/29 125/129/29 123/126/29
f 119/122/30 120/125/30 124/127/30
f 124/127/30 123/126/30 119/122/30
f 130/130/31 131/131/31 126/128/31
f 126/128/32 124/127/32 132/132/32
f 122/124/33 121/123/33 133/133/33
f 134/134/33 135/135/33 122/124/33
f 136/136/34 137/137/34 123/126/34
f 123/126/35 125/129/35 138/138/35
f 139/139/1 140/140/1 144/141/1
f 144/141/1 143/142/1 139/139/1
f 140/140/36 142/143/36 146/144/36
f 146/144/36 144/141/36 140/140/36
f 142/143/2 141/145/2 145/146/2
f 145/146/2 146/144/2 142/143/2
f 141/145/37 155/147/37 156/148/37
f 157/149/37 145/146/37 141/145/37
f 147/150/1 149/151/1 150/152/1
f 150/152/1 148/153/1 147/150/1
f 151/154/38 152/155/38 154/156/38
f 154/156/38 153/157/38 151/154/38
f 147/150/39 148/153/39 152/155/39
f 152/155/39 151/154/39 147/150/39
f 158/158/40 159/159/40 154/156/40
f 154/156/41 152/155/41 160/160/41
f 150/152/42 149/151/42 161/161/42
f 162/162/42 163/163/42 150/152/42
f 164/164/43 165/165/43 151/154/43
f 151/154/44 153/157/44 166/166/44
